PathFileType	4	(X/Y/Z)	c:/Users/goper/Files/vsCode/490R/osim_files/C04/C04_Slow_06.trc
DataRate	CameraRate	NumFrames	NumMarkers	Units                	OrigDataRate	OrigDataStartFrame	OrigNumFrames
250.00	250.00	6	36	mm	250.0	2372	3162
                Frame#	Time	LPSIS			LASIS			LTH1			LTH2			LTH3			LTH4			LLFE			LMFE			LSH1			LSH2			LSH3			LSH4			LLMAL			LMMAL			LCAL			LMTP5			LTOE			LMTP1			RPSIS			RASIS			RTH1			RTH2			RTH3			RTH4			RLFE			RMFE			RSH1			RSH2			RSH3			RSH4			RLMAL			RMMAL			RCAL			RMTP1			RTOE			RMTP5		
		X1	Y1	Z1	X2	Y2	Z2	X3	Y3	Z3	X4	Y4	Z4	X5	Y5	Z5	X6	Y6	Z6	X7	Y7	Z7	X8	Y8	Z8	X9	Y9	Z9	X10	Y10	Z10	X11	Y11	Z11	X12	Y12	Z12	X13	Y13	Z13	X14	Y14	Z14	X15	Y15	Z15	X16	Y16	Z16	X17	Y17	Z17	X18	Y18	Z18	X19	Y19	Z19	X20	Y20	Z20	X21	Y21	Z21	X22	Y22	Z22	X23	Y23	Z23	X24	Y24	Z24	X25	Y25	Z25	X26	Y26	Z26	X27	Y27	Z27	X28	Y28	Z28	X29	Y29	Z29	X30	Y30	Z30	X31	Y31	Z31	X32	Y32	Z32	X33	Y33	Z33	X34	Y34	Z34	X35	Y35	Z35	X36	Y36	Z36

2372	9.48400	-1479.76453	980.52563	282.85089	-1618.13660	897.48450	244.28148	-1528.65491	715.49554	419.64020	0.00000	0.00000	0.00000	-1601.74670	723.42468	417.33923	-1617.20557	663.90546	400.14578	-1561.81616	453.01337	365.39941	-1553.05469	449.98923	249.65948	-1501.15637	353.27969	363.10941	0.00000	0.00000	0.00000	-1554.36047	339.51093	360.85428	-1545.95508	293.43369	355.04346	0.00000	0.00000	0.00000	-1473.21387	66.84729	320.81946	-1381.07910	60.44381	284.64655	-1587.07690	14.81389	326.69067	-1604.62744	41.23734	274.26553	-1563.48218	18.02339	221.76808	-1480.30811	979.50098	207.51488	0.00000	0.00000	0.00000	-1590.73254	716.53058	73.71335	-1614.60315	660.71637	82.48425	-1650.60132	744.88733	73.47227	-1686.28772	694.27423	81.27877	-1760.59387	487.43338	116.09662	-1754.64465	490.49918	226.66628	-1686.83545	362.57245	104.71671	-1693.51672	315.30185	110.40171	0.00000	0.00000	0.00000	0.00000	0.00000	0.00000	-1697.60083	97.70077	124.74625	-1750.39099	87.16801	187.72163	-1651.70508	60.87268	182.56012	0.00000	0.00000	0.00000	-1875.89270	83.51281	148.66692	-1836.15833	49.57945	91.97343
2373	9.48800	-1482.88489	980.36914	282.43903	-1621.38403	897.24756	244.44281	-1530.95447	715.58350	419.43912	0.00000	0.00000	0.00000	-1604.24121	723.31543	417.11655	-1619.55591	663.67279	399.88437	-1563.53821	452.95242	365.22995	-1554.59583	449.95737	249.50468	-1502.57776	353.37869	362.99768	0.00000	0.00000	0.00000	-1555.54834	339.54181	360.80908	-1546.91248	293.56018	355.06909	0.00000	0.00000	0.00000	-1473.39636	67.02922	320.86780	-1381.29346	60.89255	284.63150	-1587.09363	14.85203	326.67841	-1604.64807	41.18528	274.24011	-1563.48108	18.00802	221.73967	-1483.56836	979.29987	207.17053	0.00000	0.00000	0.00000	-1593.79675	716.31250	73.64560	-1617.72290	660.48621	82.55979	-1653.99792	744.45483	73.42831	-1689.42383	693.96802	81.15585	-1764.13928	487.30368	116.48912	-1758.32654	490.40735	227.07703	-1692.56006	361.07755	104.70851	-1700.29211	313.82370	110.28534	0.00000	0.00000	0.00000	-1751.27185	307.67450	105.68908	-1708.46729	96.46164	124.41269	-1761.11194	86.10010	187.64745	-1663.15808	58.52327	182.17760	0.00000	0.00000	0.00000	-1887.12537	85.82796	149.08438	-1848.20471	51.17556	92.14493
2374	9.49200	-1486.00586	980.18341	282.04004	-1624.56750	897.13562	244.44736	-1533.37463	715.66223	419.18524	0.00000	0.00000	0.00000	-1606.70789	723.19604	416.87231	-1621.91650	663.44604	399.58102	-1565.13184	452.87363	365.07492	-1556.25024	449.86832	249.36230	-1503.66284	353.61078	362.90799	0.00000	0.00000	0.00000	-1556.90344	339.45621	360.61798	-1548.06555	293.46786	354.86838	0.00000	0.00000	0.00000	-1473.68042	67.20847	320.86819	-1381.44202	61.34754	284.60049	-1587.11072	14.88301	326.69891	-1604.65894	41.13406	274.17169	-1563.53735	18.00805	221.75497	-1486.76868	979.11072	206.77319	0.00000	0.00000	0.00000	-1596.82800	716.11157	73.61374	-1620.95679	660.19391	82.65217	-1657.42310	744.09668	73.38689	-1692.56934	693.74011	81.06936	-1767.42004	487.05453	116.91106	-1761.99329	490.28934	227.55652	-1698.37329	359.66687	104.67080	-1706.84351	312.52054	110.25356	0.00000	0.00000	0.00000	-1758.94592	309.75516	103.04137	-1719.35266	95.31104	124.33836	-1772.20886	84.74471	186.85495	-1674.83789	56.09871	181.83252	0.00000	0.00000	0.00000	-1898.08398	88.35715	149.45921	-1860.10034	52.93052	92.40257
2375	9.49600	-1488.96875	980.02020	281.70001	-1627.83630	896.93402	244.52867	-1535.72290	715.80298	418.95413	0.00000	0.00000	0.00000	-1609.22449	723.08734	416.61661	-1624.18384	663.34082	399.38556	-1566.64941	452.92078	364.96643	-1557.95349	449.76602	249.27876	-1505.19775	353.69357	362.59787	0.00000	0.00000	0.00000	-1558.11511	339.39441	360.43854	-1549.03137	293.54294	354.75284	0.00000	0.00000	0.00000	-1473.84290	67.51907	320.89059	-1381.70300	61.83081	284.57977	-1587.10120	14.91672	326.74069	-1604.74097	41.11543	274.10956	-1563.62378	17.96951	221.76559	-1489.84692	978.98273	206.42914	0.00000	0.00000	0.00000	-1599.83337	715.94287	73.53159	-1624.20801	659.93884	82.73779	-1660.79236	743.70197	73.36152	-1695.84973	693.36279	81.04302	-1770.72864	486.86755	117.28020	-1765.54138	490.10522	228.03679	-1703.98059	358.31006	104.69473	-1713.26331	311.23712	110.05748	0.00000	0.00000	0.00000	0.00000	0.00000	0.00000	-1730.04041	94.35077	124.15199	-1782.65649	83.72673	186.31172	-1685.03198	54.77531	181.33939	0.00000	0.00000	0.00000	-1908.83862	90.97350	149.84967	-1871.96155	54.70551	92.68443
2376	9.50000	-1491.98657	979.86938	281.28668	-1631.07056	896.77167	244.54941	-1538.24609	715.89325	418.68494	0.00000	0.00000	0.00000	-1611.73804	722.82489	416.28635	-1626.46631	663.16638	399.09167	-1568.22571	452.98242	364.84161	-1559.45032	449.75714	249.08626	-1506.23755	354.00626	362.61658	0.00000	0.00000	0.00000	-1559.29578	339.54819	360.34433	-1550.10706	293.62222	354.66272	0.00000	0.00000	0.00000	-1474.07996	67.83649	320.85211	-1381.92566	62.31453	284.54898	-1587.13660	14.96557	326.71661	-1605.28894	38.64874	275.06924	-1563.68311	17.99855	221.75954	-1493.12268	978.80835	206.02951	0.00000	0.00000	0.00000	-1602.85474	715.82861	73.42508	-1627.36169	659.71454	82.77390	-1664.22046	743.25037	73.30581	-1699.05103	693.07007	80.92719	-1774.22595	486.54318	117.60114	-1769.14197	489.86395	228.48959	-1709.64319	357.04721	104.67458	-1719.60229	310.06424	110.10003	0.00000	0.00000	0.00000	0.00000	0.00000	0.00000	-1740.46863	93.52721	123.80907	-1793.37366	82.67540	185.71733	-1696.43726	52.74525	181.04292	0.00000	0.00000	0.00000	-1919.45386	93.58882	150.25517	-1883.43457	56.63574	92.87953
2377	9.50400	-1495.13135	979.68140	280.90024	-1634.30054	896.65173	244.44722	-1540.68262	716.03870	418.44354	0.00000	0.00000	0.00000	-1614.31201	722.78821	416.13431	-1628.83655	663.11938	398.92117	-1570.02991	452.90845	364.64862	-1561.02039	449.68066	248.93837	-1507.67627	354.18576	362.36435	0.00000	0.00000	0.00000	-1560.61621	339.47897	360.16226	-1551.20483	293.70038	354.54285	0.00000	0.00000	0.00000	-1474.25195	68.15070	320.74240	-1382.05884	62.77048	284.44031	-1587.15881	15.03513	326.72211	-1605.36731	38.60201	275.07312	-1563.65527	17.99632	221.74936	-1496.33936	978.57886	205.67386	0.00000	0.00000	0.00000	-1605.82288	715.69171	73.25995	-1630.51514	659.47784	82.75267	-1671.25928	742.32031	73.65844	-1702.27783	692.72461	80.83862	-1777.50024	486.25150	117.98869	-1772.57056	489.55521	228.93013	-1715.12048	355.73676	104.79852	-1726.05286	308.85687	110.20405	0.00000	0.00000	0.00000	0.00000	0.00000	0.00000	-1751.32129	92.85700	123.89832	-1804.01611	81.82511	185.36436	-1707.65735	50.95457	180.77451	0.00000	0.00000	0.00000	-1929.79724	96.29592	150.57539	-1894.69226	58.69541	93.12114
